<svg width="103" height="16" viewBox="0 0 103 16" fill="none" xmlns="http://www.w3.org/2000/svg">
<path d="M3.96695 3.3519C4.58295 3.3519 5.16695 3.4599 5.71895 3.6759C6.26295 3.8999 6.67895 4.1799 6.96695 4.5159L6.75095 4.8039C6.47895 4.4999 6.09495 4.2399 5.59895 4.0239C5.09495 3.8159 4.55495 3.7119 3.97895 3.7119C3.39495 3.7119 2.91495 3.7919 2.53895 3.9519C2.16295 4.1119 1.88695 4.3239 1.71095 4.5879C1.52695 4.8599 1.43495 5.1599 1.43495 5.4879C1.43495 5.8719 1.53095 6.1799 1.72295 6.4119C1.91495 6.6439 2.17095 6.8279 2.49095 6.9639C2.80295 7.0999 3.14695 7.2119 3.52295 7.2999C3.89095 7.3879 4.26695 7.4799 4.65095 7.5759C5.02695 7.6799 5.37495 7.8079 5.69495 7.9599C6.00695 8.1199 6.25895 8.3359 6.45095 8.6079C6.63495 8.8879 6.72695 9.2479 6.72695 9.6879C6.72695 10.0639 6.62695 10.4159 6.42695 10.7439C6.22695 11.0719 5.91495 11.3359 5.49095 11.5359C5.06695 11.7439 4.52295 11.8479 3.85895 11.8479C3.40295 11.8479 2.95495 11.7759 2.51495 11.6319C2.06695 11.4959 1.68695 11.3119 1.37495 11.0799L1.55495 10.7559C1.89095 11.0039 2.26295 11.1879 2.67095 11.3079C3.07895 11.4279 3.47095 11.4879 3.84695 11.4879C4.40695 11.4879 4.87495 11.4039 5.25095 11.2359C5.61895 11.0759 5.89095 10.8599 6.06695 10.5879C6.24295 10.3159 6.33095 10.0159 6.33095 9.6879C6.33095 9.2959 6.23495 8.9839 6.04295 8.7519C5.85095 8.5199 5.59895 8.3359 5.28695 8.1999C4.96695 8.0639 4.61895 7.9519 4.24295 7.8639C3.86695 7.7759 3.49095 7.6799 3.11495 7.5759C2.73895 7.4799 2.39495 7.3519 2.08295 7.1919C1.76295 7.0319 1.51095 6.8159 1.32695 6.5439C1.13495 6.2799 1.03895 5.9319 1.03895 5.4999C1.03895 5.1239 1.14295 4.7719 1.35095 4.4439C1.55095 4.1159 1.87095 3.8519 2.31095 3.6519C2.74295 3.4519 3.29495 3.3519 3.96695 3.3519Z" fill="#626262"/>
<path d="M13.1838 12.3927L13.3239 4.3659L10.2404 4.31208L10.2469 3.94013L16.8099 4.05469L16.8034 4.42663L13.7199 4.37281L13.5798 12.3996L13.1838 12.3927Z" fill="#626262"/>
<path d="M24.7652 3.3519C25.3812 3.3519 25.9532 3.4559 26.4812 3.6639C27.0092 3.8799 27.4692 4.1799 27.8612 4.5639C28.2532 4.9479 28.5572 5.3959 28.7732 5.9079C28.9892 6.4279 29.0972 6.9919 29.0972 7.5999C29.0972 8.2079 28.9892 8.7679 28.7732 9.2799C28.5572 9.7999 28.2532 10.2519 27.8612 10.6359C27.4692 11.0199 27.0092 11.3159 26.4812 11.5239C25.9532 11.7399 25.3812 11.8479 24.7652 11.8479C24.1412 11.8479 23.5652 11.7399 23.0372 11.5239C22.5092 11.3159 22.0532 11.0199 21.6692 10.6359C21.2772 10.2519 20.9732 9.7999 20.7572 9.2799C20.5332 8.7679 20.4212 8.2079 20.4212 7.5999C20.4212 6.9919 20.5332 6.4279 20.7572 5.9079C20.9732 5.3959 21.2772 4.9479 21.6692 4.5639C22.0532 4.1799 22.5092 3.8799 23.0372 3.6639C23.5652 3.4559 24.1412 3.3519 24.7652 3.3519ZM24.7652 3.7239C24.2052 3.7239 23.6852 3.8199 23.2052 4.0119C22.7252 4.2039 22.3092 4.4759 21.9572 4.8279C21.5972 5.1799 21.3212 5.5879 21.1292 6.0519C20.9292 6.5239 20.8292 7.0399 20.8292 7.5999C20.8292 8.1599 20.9292 8.6719 21.1292 9.1359C21.3212 9.6079 21.5972 10.0199 21.9572 10.3719C22.3092 10.7239 22.7252 10.9959 23.2052 11.1879C23.6852 11.3799 24.2052 11.4759 24.7652 11.4759C25.3172 11.4759 25.8332 11.3799 26.3132 11.1879C26.7932 10.9959 27.2132 10.7239 27.5732 10.3719C27.9252 10.0199 28.2012 9.6079 28.4012 9.1359C28.5932 8.6719 28.6892 8.1599 28.6892 7.5999C28.6892 7.0399 28.5932 6.5239 28.4012 6.0519C28.2012 5.5879 27.9252 5.1799 27.5732 4.8279C27.2132 4.4759 26.7932 4.2039 26.3132 4.0119C25.8332 3.8199 25.3172 3.7239 24.7652 3.7239Z" fill="#626262"/>
<path d="M33.9891 12.3999V3.9999H36.9051C37.6011 3.9999 38.1971 4.1119 38.6931 4.3359C39.1971 4.5599 39.5811 4.8799 39.8451 5.2959C40.1091 5.7039 40.2411 6.1999 40.2411 6.7839C40.2411 7.3679 40.1091 7.8679 39.8451 8.2839C39.5811 8.6999 39.1971 9.0199 38.6931 9.2439C38.1971 9.4679 37.6011 9.5799 36.9051 9.5799H34.2171L34.3971 9.3879V12.3999H33.9891ZM39.8931 12.3999L37.7091 9.3519H38.1771L40.3731 12.3999H39.8931ZM34.3971 9.3879L34.2171 9.2079H36.9291C37.8731 9.2079 38.5931 8.9959 39.0891 8.5719C39.5931 8.1479 39.8451 7.5519 39.8451 6.7839C39.8451 6.0159 39.5931 5.4239 39.0891 5.0079C38.5931 4.5839 37.8731 4.3719 36.9291 4.3719H34.2171L34.3971 4.1799V9.3879Z" fill="#626262"/>
<path d="M45.0594 12.3999V3.9999H45.3954L49.3554 10.8759H49.1754L53.1114 3.9999H53.4474L53.4594 12.3999H53.0634L53.0514 4.5999H53.1834L49.3674 11.2359H49.1514L45.3114 4.5999H45.4554V12.3999H45.0594Z" fill="#626262"/>
<path d="M62.7652 3.3519C63.3812 3.3519 63.9532 3.4559 64.4812 3.6639C65.0092 3.8799 65.4692 4.1799 65.8612 4.5639C66.2532 4.9479 66.5572 5.3959 66.7732 5.9079C66.9892 6.4279 67.0972 6.9919 67.0972 7.5999C67.0972 8.2079 66.9892 8.7679 66.7732 9.2799C66.5572 9.7999 66.2532 10.2519 65.8612 10.6359C65.4692 11.0199 65.0092 11.3159 64.4812 11.5239C63.9532 11.7399 63.3812 11.8479 62.7652 11.8479C62.1412 11.8479 61.5652 11.7399 61.0372 11.5239C60.5092 11.3159 60.0532 11.0199 59.6692 10.6359C59.2772 10.2519 58.9732 9.7999 58.7572 9.2799C58.5332 8.7679 58.4212 8.2079 58.4212 7.5999C58.4212 6.9919 58.5332 6.4279 58.7572 5.9079C58.9732 5.3959 59.2772 4.9479 59.6692 4.5639C60.0532 4.1799 60.5092 3.8799 61.0372 3.6639C61.5652 3.4559 62.1412 3.3519 62.7652 3.3519ZM62.7652 3.7239C62.2052 3.7239 61.6852 3.8199 61.2052 4.0119C60.7252 4.2039 60.3092 4.4759 59.9572 4.8279C59.5972 5.1799 59.3212 5.5879 59.1292 6.0519C58.9292 6.5239 58.8292 7.0399 58.8292 7.5999C58.8292 8.1599 58.9292 8.6719 59.1292 9.1359C59.3212 9.6079 59.5972 10.0199 59.9572 10.3719C60.3092 10.7239 60.7252 10.9959 61.2052 11.1879C61.6852 11.3799 62.2052 11.4759 62.7652 11.4759C63.3172 11.4759 63.8332 11.3799 64.3132 11.1879C64.7932 10.9959 65.2132 10.7239 65.5732 10.3719C65.9252 10.0199 66.2012 9.6079 66.4012 9.1359C66.5932 8.6719 66.6892 8.1599 66.6892 7.5999C66.6892 7.0399 66.5932 6.5239 66.4012 6.0519C66.2012 5.5879 65.9252 5.1799 65.5732 4.8279C65.2132 4.4759 64.7932 4.2039 64.3132 4.0119C63.8332 3.8199 63.3172 3.7239 62.7652 3.7239Z" fill="#626262"/>
<path d="M77.6226 3.28869L77.6326 3.57652L71.8039 11.6809L71.7625 11.5262L77.8428 11.3139L77.8558 11.6857L71.3797 11.9118L71.3697 11.624L77.1984 3.51964L77.2278 3.67471L70.9676 3.89332L70.9546 3.52154L77.6226 3.28869Z" fill="#626262"/>
<path d="M86.2848 3.3519C86.9008 3.3519 87.4728 3.4559 88.0008 3.6639C88.5288 3.8799 88.9888 4.1799 89.3808 4.5639C89.7728 4.9479 90.0768 5.3959 90.2928 5.9079C90.5088 6.4279 90.6168 6.9919 90.6168 7.5999C90.6168 8.2079 90.5088 8.7679 90.2928 9.2799C90.0768 9.7999 89.7728 10.2519 89.3808 10.6359C88.9888 11.0199 88.5288 11.3159 88.0008 11.5239C87.4728 11.7399 86.9008 11.8479 86.2848 11.8479C85.6608 11.8479 85.0848 11.7399 84.5568 11.5239C84.0288 11.3159 83.5728 11.0199 83.1888 10.6359C82.7968 10.2519 82.4928 9.7999 82.2768 9.2799C82.0528 8.7679 81.9408 8.2079 81.9408 7.5999C81.9408 6.9919 82.0528 6.4279 82.2768 5.9079C82.4928 5.3959 82.7968 4.9479 83.1888 4.5639C83.5728 4.1799 84.0288 3.8799 84.5568 3.6639C85.0848 3.4559 85.6608 3.3519 86.2848 3.3519ZM86.2848 3.7239C85.7248 3.7239 85.2048 3.8199 84.7248 4.0119C84.2448 4.2039 83.8288 4.4759 83.4768 4.8279C83.1168 5.1799 82.8408 5.5879 82.6488 6.0519C82.4488 6.5239 82.3488 7.0399 82.3488 7.5999C82.3488 8.1599 82.4488 8.6719 82.6488 9.1359C82.8408 9.6079 83.1168 10.0199 83.4768 10.3719C83.8288 10.7239 84.2448 10.9959 84.7248 11.1879C85.2048 11.3799 85.7248 11.4759 86.2848 11.4759C86.8368 11.4759 87.3528 11.3799 87.8328 11.1879C88.3128 10.9959 88.7328 10.7239 89.0928 10.3719C89.4448 10.0199 89.7208 9.6079 89.9208 9.1359C90.1128 8.6719 90.2088 8.1599 90.2088 7.5999C90.2088 7.0399 90.1128 6.5239 89.9208 6.0519C89.7208 5.5879 89.4448 5.1799 89.0928 4.8279C88.7328 4.4759 88.3128 4.2039 87.8328 4.0119C87.3528 3.8199 86.8368 3.7239 86.2848 3.7239Z" fill="#626262"/>
<path d="M98.4758 3.3999L102.244 11.7999H101.788L98.1518 3.6759H98.3798L94.7438 11.7999H94.3118L98.0798 3.3999H98.4758Z" fill="#626262"/>
</svg>
